<svg xmlns="http://www.w3.org/2000/svg" xmlns:xlink="http://www.w3.org/1999/xlink" version="1.1" id="Layer_1" x="0px" y="0px" width="100px" height="100px" viewBox="0 0 100 100" enable-background="new 0 0 100 100" xml:space="preserve">
<path fill="#000000" d="M94.52,7.213c-3.868-3.869-8.576,0.838-8.576,0.838S62.406,31.594,57.699,36.304  c-4.707,4.709-18.14,10.112-18.14,10.112l15.458,15.458c0,0,5.7-13.125,10.413-17.843c4.701-4.704,28.241-28.246,28.241-28.246  S98.383,11.077,94.52,7.213z"/>
<path fill="#000000" d="M21.956,61.873C14.809,78.971,15.98,88.717,3.958,91.681C50.312,99.733,50.312,66.58,50.312,66.58  l-15.46-15.465C34.852,51.115,25.467,53.478,21.956,61.873z M17.492,86.547c3.537-4.099,9.075-23.743,16.196-28.673  C38.714,61.227,33.501,76.864,17.492,86.547z"/>
</svg>