<svg xmlns="http://www.w3.org/2000/svg" xmlns:xlink="http://www.w3.org/1999/xlink" version="1.1" id="Layer_1" x="0px" y="0px" width="100px" height="100px" viewBox="0 0 100 100" enable-background="new 0 0 100 100" xml:space="preserve">
<path d="M50,0C22.386,0,0,3.214,0,7.179v21.886c0,3.964,22.386,7.179,50,7.179c27.612,0,50-3.215,50-7.179V7.179  C100,3.214,77.612,0,50,0z"/>
<g>
	<path d="M50,46.24c-27.614,0-50-3.215-50-7.179v21.885c0,3.964,22.386,7.18,50,7.18c27.612,0,50-3.216,50-7.18V39.061   C100,43.025,77.612,46.24,50,46.24z"/>
</g>
<g>
	<path d="M50,78.116c-27.614,0-50-3.216-50-7.181v21.886C0,96.787,22.386,100,50,100c27.612,0,50-3.213,50-7.179V70.936   C100,74.9,77.612,78.116,50,78.116z"/>
</g>
</svg>