<svg xmlns="http://www.w3.org/2000/svg" xmlns:xlink="http://www.w3.org/1999/xlink" version="1.1" id="Layer_1" x="0px" y="0px" width="100px" height="90.963px" viewBox="0 0 100 90.963" enable-background="new 0 0 100 90.963" xml:space="preserve">
<path d="M8.984,21.367v40.338H2.988C1.341,61.706,0,60.352,0,58.711V6.732l3.861-5.143C4.518,0.716,5.951,0,7.044,0h7.923  c1.094,0,2.891,0,3.978,0h7.923c1.094,0,2.526,0.716,3.184,1.589l3.86,5.143H79.05c1.641,0,2.981,1.341,2.981,2.982v11.653H42.897  l-3.86-5.143c-0.658-0.873-2.09-1.588-3.184-1.588H27.93c-1.094,0-2.884,0-3.978,0h-7.923c-1.094,0-2.526,0.716-3.184,1.588  L8.984,21.367z"/>
<path d="M97.012,35.99h-45.13l-3.868-5.13c-0.657-0.872-2.09-1.588-3.177-1.588h-7.923c-1.094,0-2.884,0-3.984,0h-7.917  c-1.094,0-2.526,0.716-3.184,1.588l-3.861,5.13v51.992c0,1.641,1.341,2.981,2.975,2.981h76.068c1.647,0,2.988-1.341,2.988-2.981  V38.984C100,37.331,98.659,35.99,97.012,35.99z"/>
</svg>